<svg width="100" height="100" viewBox="0 0 100 100" fill="none" xmlns="http://www.w3.org/2000/svg">
<g id="Group">
<g id="Clip path group">
<mask id="mask0_47_127" style="mask-type:luminance" maskUnits="userSpaceOnUse" x="0" y="0" width="100" height="100">
<g id="clip0">
<path id="Vector" d="M100 0H0V100H100V0Z" fill="white"/>
</g>
</mask>
<g mask="url(#mask0_47_127)">
<g id="Group_2">
<path id="Vector_2" d="M87.2186 34.437C86.7928 33.6197 85.7853 33.3022 84.9678 33.7277L77.3256 37.7008H77.3139L50.238 51.7902L59.4152 22.7186C59.4152 22.707 59.4285 22.6986 59.4317 22.6853L62.0181 14.4425C62.2924 13.564 61.8033 12.6292 60.9252 12.3535C37.3505 4.7529 12.0776 17.7023 4.47685 41.2772C-3.12394 64.852 9.82567 90.1247 33.4003 97.7255C33.5808 97.7836 33.7614 97.8406 33.9427 97.8964C38.3297 99.2869 42.9041 99.9964 47.5064 100.001C67.0516 99.9456 84.32 87.2641 90.222 68.6314C93.8344 57.2903 92.7528 44.9747 87.2186 34.437ZM45.8445 54.6284C45.5686 55.5077 46.0575 56.4442 46.9367 56.7203C47.3578 56.8525 47.8139 56.8125 48.2056 56.6091L77.2939 41.4752C77.4224 41.7537 77.5592 42.0291 77.6794 42.3094C77.8461 42.7131 78.013 43.1186 78.1799 43.5291C78.3952 44.0914 78.5888 44.6587 78.7706 45.2294C78.9091 45.6633 79.0442 46.0987 79.1644 46.5359C79.3163 47.0948 79.4463 47.6589 79.5681 48.2245C79.6666 48.6783 79.7667 49.1305 79.8452 49.5861C79.9419 50.1517 80.012 50.7191 80.0788 51.288C80.1338 51.7469 80.1939 52.2041 80.2289 52.6645C80.2724 53.2469 80.2824 53.8325 80.2939 54.4148C80.3039 54.8637 80.3256 55.3109 80.3156 55.7597C80.3039 56.3787 80.2506 56.9978 80.2039 57.6169C80.1705 58.0306 80.1555 58.4512 80.1088 58.8583C80.0253 59.5658 79.8969 60.2698 79.775 60.9741C79.7166 61.2978 79.68 61.6231 79.6081 61.9451C79.388 62.9747 79.1227 64.0008 78.8006 65.0187C76.1958 73.3475 70.3678 80.2886 62.6155 84.2958C61.9313 84.6528 61.2288 84.9514 60.528 85.2569C43.8992 92.5084 24.5402 84.9069 17.2886 68.278C10.9613 53.7689 15.8816 36.8108 28.9919 27.9412C30.045 27.2217 31.1386 26.5631 32.2674 25.9691C33.1517 25.5084 34.0544 25.1031 34.9638 24.7277C35.1224 24.6609 35.2808 24.5941 35.441 24.5308C36.331 24.1827 37.2253 23.8727 38.1241 23.6014C38.2775 23.5547 38.4344 23.5162 38.5895 23.4728C39.4706 23.2242 40.3566 23.0073 41.251 22.8355C41.3211 22.822 41.3911 22.8037 41.4628 22.7905C42.3974 22.6236 43.34 22.4934 44.2861 22.4016L44.8367 22.3516C45.7711 22.2781 46.7089 22.2381 47.6483 22.2464C47.7935 22.2464 47.9369 22.2564 48.0805 22.2598C48.9231 22.2764 49.7674 22.3298 50.61 22.4133C50.8036 22.4317 50.9955 22.4467 51.1891 22.4684C52.12 22.5795 53.0502 22.7286 53.9789 22.9155C54.1741 22.9556 54.3694 23.0056 54.5645 23.0491C54.95 23.1358 55.3338 23.2509 55.7192 23.3511L45.8445 54.6284ZM87.03 67.6217C80.125 89.4887 56.8006 101.618 34.9338 94.7128C24.4405 91.3995 15.6916 84.0561 10.6093 74.2959C-0.00953293 53.9962 7.83841 28.9322 28.1378 18.3134C37.4269 13.4543 48.2113 12.2926 58.3222 15.0616L56.7338 20.1291C56.39 20.0372 56.0428 19.9839 55.6975 19.9037C55.1969 19.7836 54.6847 19.6702 54.1758 19.57C53.5535 19.4516 52.9327 19.3564 52.3086 19.2714C51.783 19.198 51.2591 19.1262 50.7335 19.0778C50.1144 19.0194 49.4988 18.9911 48.8814 18.9644C48.3525 18.9427 47.8252 18.9177 47.2978 18.9177C46.6755 18.9177 46.0564 18.9544 45.4358 18.9894C44.9152 19.0178 44.398 19.0361 43.8806 19.0878C43.2466 19.1495 42.616 19.2547 41.9869 19.3481C41.4863 19.4233 40.9856 19.485 40.4952 19.5817C39.8411 19.7119 39.1936 19.8837 38.5445 20.0489C38.0824 20.1673 37.6169 20.2658 37.158 20.4027C36.4655 20.6095 35.7831 20.8648 35.0989 21.1152C34.6952 21.262 34.2864 21.3837 33.8875 21.5473C33.0533 21.8811 32.2441 22.2748 31.4331 22.6753C31.1978 22.792 30.9542 22.8822 30.7206 23.0091C29.7511 23.5095 28.8217 24.0686 27.9124 24.6475C12.1471 34.7214 6.66581 55.1552 15.2729 71.7664C15.2863 71.7931 15.2963 71.8198 15.3097 71.8448C15.343 71.9083 15.3847 71.965 15.4164 72.0283C19.8399 80.4784 27.44 86.8242 36.5439 89.6686C36.5939 89.6852 36.6441 89.6936 36.6925 89.7086C37.6802 90.0156 38.6747 90.2709 39.6742 90.4911C40.0345 90.5712 40.3967 90.633 40.7588 90.703C41.4678 90.8366 42.1788 90.9533 42.8913 91.0367C43.2883 91.0869 43.6838 91.1351 44.081 91.1736C44.8235 91.2436 45.566 91.2853 46.3085 91.3087C46.6422 91.3205 46.9758 91.3455 47.2963 91.3472C47.3563 91.3472 47.4164 91.3472 47.4764 91.3472C48.3875 91.3472 49.2969 91.3005 50.2028 91.2303C50.4781 91.2086 50.7519 91.1836 51.0255 91.1552C52.0066 91.0584 52.9844 90.9316 53.9539 90.7531C54.1206 90.7231 54.2875 90.6814 54.4544 90.648C55.3355 90.4811 56.2097 90.2609 57.0791 90.0189C57.3077 89.9555 57.5363 89.8972 57.7631 89.8287C58.7242 89.5417 59.6738 89.2097 60.6149 88.8409C60.825 88.7575 61.0319 88.6741 61.2405 88.5839C62.225 88.1751 63.2011 87.738 64.1572 87.2491C72.6897 82.8366 79.1033 75.1948 81.9692 66.0266C82.0192 65.8697 82.0477 65.7095 82.0944 65.5527C82.3864 64.5866 82.65 63.6187 82.8586 62.6426C82.9403 62.2589 82.9853 61.8734 83.0538 61.488C83.1906 60.7305 83.3308 59.9745 83.4192 59.2137C83.4692 58.7798 83.4827 58.3461 83.5177 57.9106C83.5727 57.1981 83.6328 56.4872 83.6461 55.7764C83.6561 55.3159 83.6311 54.857 83.6228 54.3966C83.6094 53.7141 83.5978 53.0317 83.5444 52.3509C83.5077 51.872 83.441 51.3964 83.3858 50.9192C83.3074 50.2634 83.2289 49.6111 83.1172 48.9603C83.0305 48.4597 82.9186 47.9759 82.8119 47.4836C82.675 46.8612 82.5349 46.2406 82.3664 45.6231C82.2263 45.1227 82.0644 44.612 81.9025 44.1081C81.7139 43.5241 81.5188 42.9402 81.3002 42.3661C81.1016 41.8422 80.883 41.3233 80.6594 40.8059C80.531 40.5106 80.4308 40.2086 80.2939 39.915L85.001 37.4655C89.4771 46.8967 90.2024 57.6761 87.03 67.6217Z" fill="#6A994E"/>
<path id="Vector_3" d="M97.5152 22.2696C92.1036 11.6421 82.6391 3.64257 71.2585 0.0774402C70.3797 -0.199126 69.4433 0.288514 69.1661 1.16702L66.5447 9.47819L56.0444 42.7596C55.8413 43.4046 56.0475 44.1082 56.5668 44.5416C57.086 44.975 57.8154 45.0522 58.4138 44.7369L89.1322 28.5516L96.8077 24.5053C97.616 24.0794 97.9313 23.0828 97.5152 22.2696ZM70.1505 16.563C71.5329 16.563 72.6535 17.6836 72.6535 19.0658C72.6535 20.448 71.5329 21.5686 70.1505 21.5686C68.7683 21.5686 67.6477 20.448 67.6477 19.0658C67.6477 17.6836 68.7683 16.563 70.1505 16.563ZM60.4494 39.893L62.6821 32.8132C62.8038 34.65 63.7879 36.321 65.335 37.3183L60.4494 39.893ZM68.4821 34.9172C67.0997 34.9172 65.9791 33.7966 65.9791 32.4144C65.9791 31.0322 67.0997 29.9116 68.4821 29.9116C69.8643 29.9116 70.9849 31.0322 70.9849 32.4144C70.9849 33.7969 69.8643 34.9172 68.4821 34.9172ZM74.3236 32.5913C74.3236 32.5296 74.3421 32.4728 74.3421 32.4111C74.3566 29.1996 71.7649 26.5844 68.5535 26.5699C66.7733 26.5618 65.0875 27.3696 63.9785 28.7619L65.8022 22.9252C67.9282 25.3593 71.6247 25.6091 74.0589 23.4833C76.493 21.3574 76.7429 17.6608 74.6171 15.2266C73.1782 13.5791 70.9405 12.8717 68.816 13.3927L69.2097 12.1496C69.4933 12.2547 69.7821 12.3515 70.0624 12.4649C70.4461 12.6201 70.8282 12.777 71.2036 12.9455C71.7777 13.2025 72.3383 13.4811 72.894 13.7698C73.241 13.95 73.593 14.1252 73.9335 14.3187C74.5241 14.6524 75.1014 15.0162 75.6638 15.3866C75.9407 15.5668 76.2261 15.7336 76.498 15.9239C77.3 16.4802 78.0788 17.0735 78.8341 17.7043L78.8974 17.7527C79.665 18.4018 80.3991 19.0875 81.1016 19.8133C81.3269 20.0436 81.5355 20.2939 81.7557 20.5308C82.2213 21.0314 82.68 21.5471 83.1157 22.0825C83.3593 22.383 83.5879 22.6966 83.8215 23.0071C84.2035 23.5075 84.5757 24.0249 84.9294 24.5538C85.1563 24.8875 85.3749 25.2428 85.5968 25.5933C85.7636 25.8586 85.9088 26.1355 86.0657 26.4058L74.3236 32.5913ZM89.0355 24.8341C88.8519 24.5121 88.6383 24.2133 88.4449 23.898C88.2029 23.5025 87.9593 23.1071 87.7024 22.73C87.3169 22.151 86.908 21.5921 86.491 21.0397C86.229 20.691 85.9736 20.3357 85.6983 19.9986C85.2229 19.4113 84.719 18.8539 84.21 18.2999C83.9614 18.0313 83.7277 17.7493 83.4708 17.4874C82.6983 16.6997 81.8974 15.9439 81.0564 15.2314L81.0313 15.2081C80.1821 14.4906 79.2944 13.8182 78.38 13.1824C78.0813 12.9755 77.766 12.7936 77.4622 12.5951C76.8316 12.183 76.1958 11.7792 75.5385 11.4071C75.1613 11.1952 74.7725 11.0049 74.3871 10.8047C73.7714 10.486 73.1524 10.1773 72.5166 9.892C72.0979 9.70678 71.6739 9.53493 71.2468 9.36472C70.9014 9.22624 70.5694 9.06438 70.2189 8.93591L71.8408 3.78502C81.15 7.12153 88.9385 13.7124 93.7693 22.3413L89.0355 24.8341Z" fill="#6A994E"/>
<path id="Vector_4" d="M40.1166 26.5747C36.8911 26.5747 34.2766 29.1892 34.2766 32.4147C34.2766 35.64 36.8911 38.2547 40.1166 38.2547C43.3419 38.2547 45.9566 35.64 45.9566 32.4147C45.9566 29.1892 43.3419 26.5747 40.1166 26.5747ZM40.1166 34.9175C38.7343 34.9175 37.6136 33.7969 37.6136 32.4147C37.6136 31.0325 38.7343 29.9117 40.1166 29.9117C41.4988 29.9117 42.6194 31.0325 42.6194 32.4147C42.6194 33.797 41.4988 34.9175 40.1166 34.9175Z" fill="#6A994E"/>
<path id="Vector_5" d="M23.4308 41.5918C20.2055 41.5918 17.5908 44.2065 17.5908 47.4318C17.5908 50.6573 20.2055 53.272 23.4308 53.272C26.6561 53.272 29.2708 50.6573 29.2708 47.4318C29.2708 44.2065 26.6561 41.5918 23.4308 41.5918ZM23.4308 49.9348C22.0486 49.9348 20.9279 48.8141 20.9279 47.4318C20.9279 46.0496 22.0486 44.929 23.4308 44.929C24.813 44.929 25.9336 46.0496 25.9336 47.4318C25.9336 48.8143 24.813 49.9348 23.4308 49.9348Z" fill="#6A994E"/>
<path id="Vector_6" d="M40.1166 41.5918C36.8911 41.5918 34.2766 44.2065 34.2766 47.4318C34.2766 50.6573 36.8911 53.272 40.1166 53.272C43.3419 53.272 45.9566 50.6573 45.9566 47.4318C45.9566 44.2065 43.3419 41.5918 40.1166 41.5918ZM40.1166 49.9348C38.7343 49.9348 37.6136 48.8141 37.6136 47.4318C37.6136 46.0496 38.7343 44.929 40.1166 44.929C41.4988 44.929 42.6194 46.0496 42.6194 47.4318C42.6194 48.8143 41.4988 49.9348 40.1166 49.9348Z" fill="#6A994E"/>
<path id="Vector_7" d="M56.8022 71.6265C53.5768 71.6265 50.9622 74.2412 50.9622 77.4665C50.9622 80.6918 53.5768 83.3065 56.8022 83.3065C60.0276 83.3065 62.6423 80.6918 62.6423 77.4665C62.6423 74.2412 60.0276 71.6265 56.8022 71.6265ZM56.8022 79.9693C55.42 79.9693 54.2993 78.8487 54.2993 77.4665C54.2993 76.0843 55.42 74.9637 56.8022 74.9637C58.1845 74.9637 59.3051 76.0843 59.3051 77.4665C59.3051 78.8488 58.1845 79.9693 56.8022 79.9693Z" fill="#6A994E"/>
<path id="Vector_8" d="M68.482 59.9463C65.2565 59.9463 62.6418 62.5608 62.6418 65.7863C62.6418 69.0116 65.2565 71.6263 68.482 71.6263C71.7073 71.6263 74.322 69.0116 74.322 65.7863C74.322 62.5608 71.7073 59.9463 68.482 59.9463ZM68.482 68.2891C67.0997 68.2891 65.979 67.1685 65.979 65.7863C65.979 64.4041 67.0997 63.2833 68.482 63.2833C69.8642 63.2833 70.9848 64.4041 70.9848 65.7863C70.9848 67.1686 69.8642 68.2891 68.482 68.2891Z" fill="#6A994E"/>
<path id="Vector_9" d="M73.4879 46.5972C70.2626 46.5972 67.6479 49.2117 67.6479 52.4372C67.6479 55.6625 70.2626 58.2772 73.4879 58.2772C76.7134 58.2772 79.328 55.6625 79.328 52.4372C79.328 49.2117 76.7134 46.5972 73.4879 46.5972ZM73.4879 54.94C72.1058 54.94 70.9851 53.8194 70.9851 52.4372C70.9851 51.055 72.1058 49.9342 73.4879 49.9342C74.8701 49.9342 75.9909 51.055 75.9909 52.4372C75.9909 53.8195 74.8701 54.94 73.4879 54.94Z" fill="#6A994E"/>
<path id="Vector_10" d="M25.0993 58.2778C21.8738 58.2778 19.2593 60.8925 19.2593 64.1178C19.2593 67.3431 21.8738 69.9578 25.0993 69.9578C28.3246 69.9578 30.9393 67.3431 30.9393 64.1178C30.9393 60.8925 28.3246 58.2778 25.0993 58.2778ZM25.0993 66.6206C23.7171 66.6206 22.5963 65.5 22.5963 64.1178C22.5963 62.7356 23.7171 61.615 25.0993 61.615C26.4815 61.615 27.6021 62.7356 27.6021 64.1178C27.6021 65.5002 26.4815 66.6206 25.0993 66.6206Z" fill="#6A994E"/>
<path id="Vector_11" d="M51.7965 56.6084C48.5712 56.6084 45.9565 59.2231 45.9565 62.4484C45.9565 65.6737 48.5712 68.2884 51.7965 68.2884C55.0219 68.2884 57.6365 65.6737 57.6365 62.4484C57.6365 59.2231 55.0219 56.6084 51.7965 56.6084ZM51.7965 64.9514C50.4144 64.9514 49.2936 63.8306 49.2936 62.4484C49.2936 61.0662 50.4144 59.9456 51.7965 59.9456C53.1787 59.9456 54.2994 61.0662 54.2994 62.4484C54.2994 63.8309 53.1787 64.9514 51.7965 64.9514Z" fill="#6A994E"/>
<path id="Vector_12" d="M36.7792 71.6265C33.5539 71.6265 30.9392 74.2412 30.9392 77.4665C30.9392 80.6918 33.5539 83.3065 36.7792 83.3065C40.0045 83.3065 42.6192 80.6918 42.6192 77.4665C42.6192 74.2412 40.0045 71.6265 36.7792 71.6265ZM36.7792 79.9693C35.397 79.9693 34.2764 78.8487 34.2764 77.4665C34.2764 76.0843 35.397 74.9637 36.7792 74.9637C38.1614 74.9637 39.282 76.0843 39.282 77.4665C39.282 78.8488 38.1614 79.9693 36.7792 79.9693Z" fill="#6A994E"/>
<path id="Vector_13" d="M27.6019 34.9175C26.6805 34.9175 25.9333 35.6647 25.9333 36.5861C25.9333 37.5076 26.6805 38.2547 27.6019 38.2547C28.5233 38.2547 29.2705 39.0019 29.2705 39.9233C29.2705 40.8448 30.0176 41.5919 30.9391 41.5919C31.8605 41.5919 32.6077 40.8448 32.6077 39.9233C32.6077 37.1589 30.3666 34.9175 27.6019 34.9175Z" fill="#6A994E"/>
<path id="Vector_14" d="M49.2935 69.9575C46.5289 69.9575 44.2878 72.1986 44.2878 74.9633C44.2878 75.8847 45.0349 76.6319 45.9564 76.6319C46.8778 76.6319 47.625 75.8847 47.625 74.9633C47.625 74.0417 48.3721 73.2947 49.2935 73.2947C50.215 73.2947 50.9621 72.5475 50.9621 71.6261C50.9621 70.7047 50.215 69.9575 49.2935 69.9575Z" fill="#6A994E"/>
<path id="Vector_15" d="M52.8335 25.3937C52.1815 24.7421 51.1249 24.7426 50.4733 25.3946C49.8133 26.0255 48.7738 26.0255 48.114 25.3946C47.4622 24.7426 46.4057 24.7421 45.7536 25.3937C45.1016 26.0454 45.1013 27.1019 45.7529 27.754C47.7072 29.7094 50.8765 29.7104 52.8321 27.7562L52.8343 27.754C53.4858 27.1019 53.4855 26.0454 52.8335 25.3937Z" fill="#6A994E"/>
<path id="Vector_16" d="M64.3108 53.2715C61.5463 53.2715 59.3052 55.5124 59.3052 58.2771C59.3052 59.1985 60.0522 59.9457 60.9738 59.9457C61.8952 59.9457 62.6424 59.1985 62.6424 58.2771C62.6424 57.3557 63.3894 56.6085 64.3108 56.6085C65.2324 56.6085 65.9794 55.8615 65.9794 54.9399C65.9794 54.0185 65.2324 53.2715 64.3108 53.2715Z" fill="#6A994E"/>
<path id="Vector_17" d="M38.7955 56.4058L38.7931 56.4034C38.1412 55.7519 37.0845 55.7523 36.433 56.4044C35.7814 57.0562 35.7819 58.1129 36.4337 58.7645C37.0851 59.4161 37.0851 60.4723 36.4337 61.1239C35.7814 61.7747 35.78 62.8312 36.4309 63.4836L36.4322 63.4848C37.0833 64.1369 38.14 64.1375 38.7919 63.4861L38.7931 63.4848C40.7487 61.5308 40.7495 58.3614 38.7955 56.4058Z" fill="#6A994E"/>
<path id="Vector_18" d="M79.3276 21.5688C78.4062 21.5688 77.6591 22.3159 77.6591 23.2373C77.6591 24.1588 76.912 24.9059 75.9906 24.9059C75.0691 24.9059 74.322 25.6531 74.322 26.5745C74.322 27.496 75.0691 28.2431 75.9906 28.2431C78.7551 28.2431 80.9962 26.002 80.9962 23.2373C80.9962 22.3159 80.2492 21.5688 79.3276 21.5688Z" fill="#6A994E"/>
</g>
</g>
</g>
</g>
</svg>
