<svg width="100" height="100" viewBox="0 0 100 100" fill="none" xmlns="http://www.w3.org/2000/svg">
<g id="Group">
<g id="Clip path group">
<mask id="mask0_47_163" style="mask-type:luminance" maskUnits="userSpaceOnUse" x="0" y="0" width="100" height="100">
<g id="clip0">
<path id="Vector" d="M100 0H0V100H100V0Z" fill="white"/>
</g>
</mask>
<g mask="url(#mask0_47_163)">
<g id="Group_2">
<path id="Vector_2" d="M29.9966 77.5024C27.2357 77.5024 24.9971 79.7409 24.9971 82.5018C24.9971 85.2628 27.2357 87.5012 29.9966 87.5012C32.7575 87.5012 34.996 85.2628 34.996 82.5018C34.996 79.7409 32.7575 77.5024 29.9966 77.5024ZM29.9966 84.1682C29.0763 84.1682 28.33 83.4221 28.33 82.5018C28.33 81.5815 29.0763 80.8354 29.9966 80.8354C30.9169 80.8354 31.663 81.5815 31.663 82.5018C31.663 83.4221 30.9169 84.1682 29.9966 84.1682Z" fill="#6A994E"/>
<path id="Vector_3" d="M78.3243 77.5024C75.5634 77.5024 73.325 79.7409 73.325 82.5018C73.325 85.2628 75.5634 87.5012 78.3243 87.5012C81.0853 87.5012 83.3237 85.2628 83.3237 82.5018C83.3237 79.7409 81.0853 77.5024 78.3243 77.5024ZM78.3243 84.1682C77.404 84.1682 76.6578 83.4221 76.6578 82.5018C76.6578 81.5815 77.404 80.8354 78.3243 80.8354C79.2446 80.8354 79.9907 81.5815 79.9907 82.5018C79.9907 83.4221 79.2446 84.1682 78.3243 84.1682Z" fill="#6A994E"/>
<path id="Vector_4" d="M4.99951 34.1743H8.33245V37.5071H4.99951V34.1743Z" fill="#6A994E"/>
<path id="Vector_5" d="M0 40.8403H3.33294V44.1733H0V40.8403Z" fill="#6A994E"/>
<path id="Vector_6" d="M81.657 17.5093H91.6557V20.8421H81.657V17.5093Z" fill="#6A994E"/>
<path id="Vector_7" d="M74.9912 17.5093H78.3242V20.8421H74.9912V17.5093Z" fill="#6A994E"/>
<path id="Vector_8" d="M53.3271 7.51025H69.9918V10.8432H53.3271V7.51025Z" fill="#6A994E"/>
<path id="Vector_9" d="M46.6614 7.51025H49.9943V10.8432H46.6614V7.51025Z" fill="#6A994E"/>
<path id="Vector_10" d="M99.9883 92.5005V89.1676H85.7566C87.1773 87.5946 88.0586 85.6101 88.2734 83.5016L99.1552 77.2826C99.2323 77.2288 99.3056 77.1694 99.3731 77.1043C99.4317 77.0644 99.488 77.0198 99.54 76.9726C99.6653 76.8399 99.7678 76.6869 99.8434 76.5209C99.8516 76.5054 99.863 76.4957 99.8703 76.481C99.9461 76.2923 99.9867 76.0913 99.99 75.8879C99.99 75.8691 99.9997 75.8544 99.9997 75.8357V60.8376C99.9923 60.7887 99.9827 60.7407 99.9697 60.6927C99.972 60.6496 99.972 60.6055 99.9697 60.5624L96.6367 40.5648C96.6294 40.5404 96.6205 40.5152 96.6106 40.4916C96.6106 40.4737 96.6106 40.4534 96.6106 40.4354L94.9442 33.7696C94.7578 33.0259 94.0889 32.5051 93.3225 32.5074H73.1083C72.8822 31.6954 72.4525 30.9534 71.8602 30.3527L60.4813 18.974C59.5462 18.0332 58.2736 17.506 56.9464 17.5093H16.6647C15.7444 17.5093 14.9983 18.2554 14.9983 19.1757V25.8416H0V29.1746H14.9983V34.174H11.6653V37.5069H14.9983V40.8399H6.66589V44.1727H14.9983V59.171C14.078 59.171 13.3318 59.9173 13.3318 60.8376V75.8357C13.3318 75.8707 13.3505 75.9009 13.3521 75.9374C13.3619 76.088 13.392 76.2369 13.4416 76.3793C13.4571 76.4323 13.4758 76.4843 13.497 76.5355C13.5751 76.7105 13.6825 76.8699 13.8151 77.0076L20.0278 83.2202C20.1872 85.4293 21.0798 87.523 22.5641 89.1676H0V92.5005H99.9883ZM68.9088 79.1687H39.4119C39.2077 78.591 38.9497 78.0327 38.6422 77.5023H69.6786C69.3709 78.0327 69.113 78.591 68.9088 79.1687ZM39.9953 82.5016H68.3253C68.3262 84.9648 69.2408 87.3399 70.8919 89.1676H37.4289C39.0798 87.3399 39.9945 84.9648 39.9953 82.5016ZM71.6583 82.5016C71.6583 78.8204 74.643 75.8357 78.3242 75.8357C82.0055 75.8357 84.9902 78.8204 84.9902 82.5016C84.9902 86.1829 82.0055 89.1676 78.3242 89.1676C74.643 89.1676 71.6583 86.1829 71.6583 82.5016ZM87.9528 79.8351C87.7266 79.019 87.3963 78.2346 86.9698 77.5023H92.0458L87.9528 79.8351ZM96.3534 59.171H79.9906V42.5063H93.5772L96.3534 59.171ZM92.8545 39.1734H78.3242C77.4039 39.1734 76.6577 39.9196 76.6577 40.8399V60.8376C76.6577 61.7579 77.4039 62.504 78.3242 62.504H96.6555V65.8369H91.6559V69.1699H96.6555V74.1693H83.8403C80.4984 71.9471 76.15 71.9471 72.8081 74.1693H35.5127C32.1708 71.9471 27.8223 71.9471 24.4803 74.1693H16.6647V67.5034H23.3306V64.1704H16.6647V62.504H71.6583C72.5786 62.504 73.3248 61.7579 73.3248 60.8376V35.8404H92.0214L92.8545 39.1734ZM18.3313 44.1727H31.663V40.8399H18.3313V37.5069H33.3294V34.174H18.3313V29.1746H26.6636V25.8416H18.3313V20.8421H56.9464C57.3883 20.8438 57.8114 21.0196 58.1247 21.3304L69.5036 32.7093C69.8169 33.0218 69.9919 33.4465 69.9919 33.8891V59.171H18.3313V44.1727ZM21.3509 77.5023C21.0572 78.0084 20.8089 78.5405 20.6095 79.0905L19.0212 77.5023H21.3509ZM23.3306 82.5016C23.3306 78.8204 26.3153 75.8357 29.9966 75.8357C33.6777 75.8357 36.6623 78.8204 36.6623 82.5016C36.6623 86.1829 33.6777 89.1676 29.9966 89.1676C26.3153 89.1676 23.3306 86.1829 23.3306 82.5016Z" fill="#6A994E"/>
</g>
</g>
</g>
</g>
</svg>
