<svg width="100" height="100" viewBox="0 0 100 100" fill="none" xmlns="http://www.w3.org/2000/svg">
<g id="service 1">
<path id="Vector" d="M70.8134 33.7036L69.7434 30.1818C68.3843 26.1814 64.0395 24.0403 60.039 25.3995C57.7887 26.164 56.0213 27.9314 55.2568 30.1818L54.1868 33.7036C53.2864 36.6736 53.0974 39.8137 53.6351 42.8701C54.1256 45.4436 55.7593 47.6543 58.0751 48.8786L56.8768 75.6668C56.7164 77.162 57.2013 78.6548 58.2101 79.7701C60.3795 82.1431 64.062 82.3081 66.4349 80.1387C66.5632 80.0214 66.6862 79.8986 66.8034 79.7701C67.7896 78.6864 68.2738 77.2375 68.1368 75.7786L66.9318 48.8751C69.2445 47.6504 70.8756 45.4411 71.3651 42.8701C71.9028 39.8137 71.7139 36.6736 70.8134 33.7036ZM68.0818 42.2901C67.7209 44.1389 66.4034 45.6557 64.6234 46.2718C63.9478 46.5257 63.5126 47.1857 63.5451 47.9068L64.8118 76.0418C64.8701 76.5937 64.6881 77.1439 64.3118 77.5518C63.3082 78.5454 61.692 78.5454 60.6884 77.5518C60.2934 77.1111 60.114 76.5176 60.1984 75.9318L61.4551 47.9068C61.4876 47.1857 61.0524 46.5257 60.3768 46.2718C58.5968 45.6557 57.2793 44.1389 56.9184 42.2901C56.4726 39.7526 56.6296 37.1457 57.3768 34.6801L58.4468 31.1568C59.2746 28.9182 61.7606 27.7748 63.9993 28.6026C65.1828 29.0404 66.1157 29.9736 66.5534 31.1568L67.6234 34.6801C68.3696 37.1461 68.5268 39.7526 68.0818 42.2901Z" fill="#6A994E"/>
<path id="Vector_2" d="M45 25C44.0795 25 43.3333 25.7462 43.3333 26.6667V40.9767L38.8217 45.4883C38.4879 45.8208 38.3104 46.2794 38.3333 46.75L39.7917 75.9167C39.8264 76.5456 39.5981 77.1608 39.1617 77.615C38.2493 78.5355 36.7636 78.542 35.8429 77.6295C35.8379 77.6248 35.8331 77.6198 35.8282 77.615C35.3917 77.1608 35.1636 76.5456 35.1982 75.9167L36.6667 46.75C36.69 46.2795 36.5131 45.8212 36.18 45.4883L31.6667 40.9767V26.6667C31.6667 25.7462 30.9204 25 30 25C29.0795 25 28.3333 25.7462 28.3333 26.6667V41.6667C28.3333 42.1088 28.5092 42.5325 28.8217 42.845L33.2983 47.3233L31.8767 75.755C31.7254 78.8606 34.1204 81.5011 37.2261 81.6523C40.3317 81.8036 42.972 79.4086 43.1233 76.303C43.1323 76.1205 43.1323 75.9377 43.1233 75.7552L41.7017 47.3236L46.1783 42.8452C46.4908 42.5327 46.6667 42.1089 46.6667 41.6669V26.6669C46.6667 25.7462 45.9204 25 45 25Z" fill="#6A994E"/>
<path id="Vector_3" d="M35 25C34.0795 25 33.3333 25.7462 33.3333 26.6667V40C33.3333 40.9205 34.0795 41.6667 35 41.6667C35.9204 41.6667 36.6667 40.9205 36.6667 40V26.6667C36.6667 25.7462 35.9204 25 35 25Z" fill="#6A994E"/>
<path id="Vector_4" d="M39.9997 25C39.0793 25 38.333 25.7462 38.333 26.6667V40C38.333 40.9205 39.0793 41.6667 39.9997 41.6667C40.9202 41.6667 41.6664 40.9205 41.6664 40V26.6667C41.6664 25.7462 40.9202 25 39.9997 25Z" fill="#6A994E"/>
<path id="Vector_5" d="M50 0C22.3858 0 0 22.3858 0 50C0 77.6142 22.3858 100 50 100C77.6142 100 100 77.6142 100 50C99.9688 22.3987 77.6012 0.03125 50 0ZM50 96.6667C24.2267 96.6667 3.33333 75.7733 3.33333 50C3.33333 24.2267 24.2267 3.33333 50 3.33333C75.7733 3.33333 96.6667 24.2267 96.6667 50C96.6373 75.7611 75.7611 96.6373 50 96.6667Z" fill="#6A994E"/>
<path id="Vector_6" d="M55.4101 81.2856C55.3207 80.3697 54.5055 79.6994 53.5893 79.7888C53.5679 79.7909 53.5463 79.7934 53.5249 79.7963L53.5316 79.7947C51.1851 80.0672 48.8147 80.0672 46.4682 79.7947C45.5537 79.6873 44.7255 80.3417 44.6182 81.2563C44.511 82.1709 45.1654 82.9991 46.0799 83.1063C48.6822 83.4103 51.311 83.4103 53.9132 83.1063C54.8293 83.0172 55.4994 82.2019 55.4101 81.2856Z" fill="#6A994E"/>
<path id="Vector_7" d="M75.5 28.523C74.9084 27.8176 73.8571 27.7255 73.152 28.317C73.152 28.317 73.1475 28.3211 73.145 28.323C72.4414 28.9162 72.3518 29.9675 72.945 30.6712C82.9939 42.6005 82.2251 60.2398 71.1765 71.2495C70.5245 71.8994 70.5226 72.955 71.1725 73.607C71.8221 74.2592 72.8778 74.2611 73.53 73.6112C85.8084 61.3794 86.6646 41.7789 75.5 28.523Z" fill="#6A994E"/>
<path id="Vector_8" d="M57.8616 17.5985C51.3481 16.0374 44.5168 16.4569 38.2432 18.8035C37.3816 19.1274 36.946 20.0886 37.2699 20.9501C37.5141 21.5994 38.1349 22.0293 38.8285 22.0299C39.0279 22.0288 39.2254 21.9924 39.4116 21.9218C45.0612 19.8091 51.2129 19.4318 57.0782 20.8385C57.9731 21.0547 58.8737 20.5049 59.0899 19.6101C59.3062 18.7154 58.7563 17.8147 57.8616 17.5985Z" fill="#6A994E"/>
<path id="Vector_9" d="M28.7485 71.1666C23.1301 65.5577 19.981 57.9391 20.0002 50.0001C19.9838 43.6571 21.9929 37.4746 25.7352 32.3533C26.2883 31.6176 26.1402 30.5727 25.4044 30.0196C24.6685 29.4665 23.6238 29.6146 23.0707 30.3505C23.0608 30.3637 23.0513 30.3766 23.0419 30.3901C13.4058 43.6376 14.8238 61.9232 26.3869 73.5266C27.0385 74.1788 28.0957 74.1791 28.7477 73.5276C29.3998 72.8758 29.4002 71.8188 28.7485 71.1666Z" fill="#6A994E"/>
</g>
</svg>
