<svg width="32" height="32" viewBox="0 0 32 32" fill="none" xmlns="http://www.w3.org/2000/svg">
<g id="twitter">
<path id="Vector" d="M30.6667 4.01341C30.6667 4.01341 27.9762 5.60289 26.48 6.05341C25.677 5.13009 24.6098 4.47567 23.4227 4.17864C22.2356 3.88163 20.986 3.95633 19.8428 4.39268C18.6996 4.82903 17.7179 5.60595 17.0307 6.61836C16.3434 7.63079 15.9836 8.82985 16 10.0534V11.3867C13.6568 11.4475 11.3351 10.9278 9.24139 9.874C7.14769 8.82017 5.34713 7.26492 4.00004 5.34675C4.00004 5.34675 -1.33329 17.3468 10.6667 22.6801C7.92075 24.544 4.64959 25.4787 1.33337 25.3468C13.3334 32.0135 28 25.3468 28 10.0134C27.9988 9.64201 27.9631 9.27153 27.8934 8.90675C29.2542 7.56473 30.6667 4.01341 30.6667 4.01341Z" stroke="#6A994E" stroke-width="2" stroke-linecap="round" stroke-linejoin="round"/>
</g>
</svg>
